<svg xmlns="http://www.w3.org/2000/svg" viewBox="241.59 288.99 536.9 224.08">
<path d="M689.8 415.31C689.76 415.12 689.72 414.92 689.68 414.73C687.19 414.72 684.69 414.71 682.2 414.71C682.08 414.88 681.96 415.06 681.85 415.23C669.53 415.19 656.78 421.81 647.11 428.75C641.08 433.08 637.08 440.18 631.15 444.66C623.72 450.29 612.73 456 603.79 458.39C594.99 460.74 574.98 467.1 567.88 459.63C573.65 452.59 581.87 449.77 588.92 444.39C592.7 441.51 596.8 437.98 600.11 434.24C603.66 430.23 604.41 421.71 600.08 417.88C597.01 415.16 593.16 415.14 589.94 413.39C589.83 413.1 589.73 412.8 589.62 412.5C588.06 412.54 586.5 412.58 584.94 412.62C584.79 412.86 584.63 413.09 584.47 413.33C581.39 413.33 578.31 413.32 575.23 413.32C575.04 413.04 574.85 412.76 574.66 412.48C573.72 412.47 572.79 412.45 571.85 412.44C571.66 412.76 571.47 413.08 571.28 413.39C569.05 414.51 566.85 413.91 564.39 414.26C558.32 415.12 551.74 416.58 545.83 418.24C526.94 423.54 508.11 432.47 490.6 441.5C471.14 451.54 452.3 462.95 433.98 474.66C428.54 478.14 423.41 482.3 418.1 485.86C411.7 490.15 404.67 493.8 398.55 498.04C392.74 502.06 385.16 503.63 378.53 505.33C372.38 506.9 366.34 508.93 360.17 510.18C356.47 510.93 352.47 510.54 348.81 511.26C346.5 511.73 344.72 512.43 342.27 512.42C342.11 512.12 341.96 511.82 341.8 511.52C338.37 511.49 334.94 511.47 331.51 511.44C331.34 511.81 331.16 512.17 330.99 512.54C330.93 512.67 330.88 512.8 330.83 512.94C329.91 512.81 328.99 512.68 328.08 512.56C327.98 512.23 327.88 511.9 327.77 511.58C325.28 511.55 322.79 511.52 320.29 511.49C320.14 511.79 319.98 512.09 319.82 512.39C314.46 512.64 309.33 511.21 304.22 510.24C303.06 510.02 301.88 510.49 300.73 510.31C297.12 509.75 293.61 508.05 290.15 507.2C279.14 504.5 267.68 500.56 258.07 494.58C253.68 491.86 242.55 487.98 241.71 482.07C246.61 479.41 252.61 484.73 257.28 486.5C264.36 489.18 272.51 491.42 280.13 492.68C284.68 493.43 289.74 493.02 294.05 494.49C294.07 494.72 294.09 494.96 294.11 495.2C295.67 495.28 297.22 495.36 298.78 495.44C298.95 495.18 299.12 494.93 299.29 494.67C299.86 494.69 300.44 494.72 301.01 494.74C301.2 495.01 301.4 495.28 301.59 495.55C304.39 495.55 307.2 495.55 310.01 495.55C310.21 495.26 310.41 494.98 310.61 494.69C313.17 493.3 315.62 494.07 318.4 493.76C321.58 493.41 325.31 492.41 328.48 491.63C339.38 488.94 349.16 483.69 358.06 477.29C360.05 475.85 361.77 473.3 363.52 471.53C366.03 468.97 369.41 466.52 371.52 463.68C378.61 454.19 384.33 444.22 391.28 434.76C393.39 431.88 396.67 427.38 399.09 424.79C400.15 423.67 401.6 422.99 402.52 421.71C407.35 414.93 413.07 409.47 418.94 403.5C420.73 401.69 421.93 399.6 423.56 397.75C424.8 396.33 426.8 395.43 428.19 394.07C433.07 389.3 437.83 384.3 443.01 379.91C443.93 379.13 445.04 378.9 446.02 378.24C447.34 377.35 447.98 375.84 449.19 374.88C452.47 372.27 455.73 369.53 459.13 367.06C465.76 362.24 472.99 358.12 478.82 352.1C480.48 350.38 483.15 348.76 484.52 346.91C487.34 343.09 489.48 336.31 488.92 331.54C487.41 318.56 474.15 309.66 463.16 305.2C458.8 303.42 450.97 303.39 448.9 298.78C452.59 291.66 465.63 290.87 472.69 289.84C490.01 287.31 505.62 291.56 520.49 299.68C523.45 301.3 527.32 302.4 530.32 304.33C537.33 308.85 544.28 314.47 552.5 316.63C560.9 318.83 569.14 317.68 577.48 315.98C579.38 315.6 581.19 316.07 583.07 315.91C585.64 315.7 588.09 314.63 590.75 314.63C592.55 314.62 594.31 315.17 596.13 314.93C598.39 314.64 600.33 313.92 602.71 313.86C637.64 313.03 678.99 319.07 708.96 338.01C719.71 344.8 728.93 354.51 736.56 364.61C739.21 368.12 740.31 372.51 742.46 375.89C742.88 376.55 743.71 376.81 744.13 377.57C747.88 384.32 747.27 392.8 752.7 398.91C760.74 407.96 780.92 407.01 778.09 423.15C776.58 431.8 763.45 432.06 757.01 431.28C747.29 430.09 739.59 427.07 730.37 424.32C727.95 423.6 725.11 423.79 722.64 423.25C717.75 422.19 712.98 420.48 708.2 419.21C703 417.84 694.18 417.45 689.8 415.31ZM470.63 295.79C469.46 295.75 468.28 295.71 467.11 295.67C467.04 295.98 466.97 296.29 466.91 296.61C465.77 297.33 464.63 298.06 463.48 298.78C467.32 301.93 472.75 303.46 476.91 306.31C485.61 312.3 497 323.52 495.14 335.25C492.11 354.48 473.38 364.1 459.18 374.55C453.66 378.61 448.77 383.59 443.24 387.61C438.48 391.07 435.16 396.49 430.57 400.18C423.15 406.14 416.33 413.6 410.54 421.18C409.19 422.95 407.21 424.19 405.84 425.94C401.1 432.01 395.86 437.92 391.47 444.28C383.68 455.56 374.82 471.81 363.66 480.07C356.53 485.35 349.16 490.44 340.73 493.75C336.12 495.56 331.04 495.96 326.62 497.81C325.14 497.75 323.65 497.69 322.16 497.63C322.05 497.93 321.94 498.24 321.82 498.54C319.44 498.5 317.06 498.47 314.68 498.43C314.5 498.78 314.33 499.12 314.15 499.47C313.96 499.57 313.77 499.68 313.58 499.79C305.69 499.64 297.81 499.49 289.93 499.34C289.76 499.04 289.6 498.74 289.43 498.43C287.87 498.43 286.31 498.43 284.76 498.43C284.7 498.75 284.64 499.06 284.57 499.38C288.77 502.94 297.02 503.07 302.35 504.19C321.28 508.19 340.62 506.99 359.58 504.01C366.21 502.97 373.29 501.67 379.67 499.57C392.55 495.34 403.83 487.46 415.18 480.22C429.28 471.23 443.03 461.97 457.28 453.12C463.36 449.34 470.18 446.72 476.19 442.84C488.27 435.04 507.12 426.12 520.62 421.05C528.04 418.27 536.11 414.83 543.8 413C546.15 412.44 548.32 412.16 550.53 411.13C551.71 411.12 552.9 411.1 554.08 411.08C554.15 410.84 554.21 410.6 554.27 410.37C555.77 410.39 557.26 410.42 558.76 410.44C558.89 410.14 559.01 409.84 559.14 409.53C561.19 409.54 563.25 409.55 565.3 409.56C565.47 409.28 565.64 409 565.81 408.72C569.7 408.65 573.58 408.59 577.46 408.52C577.61 408.26 577.76 407.99 577.91 407.73C580.19 407.58 582.47 407.44 584.75 407.3C584.95 407.42 585.15 407.54 585.36 407.66C585.53 407.95 585.7 408.23 585.88 408.52C587.92 408.52 589.95 408.51 591.99 408.51C595.14 409.08 598.61 410.08 601.31 411.88C603.61 413.4 605.81 415.94 607.15 418.3C613.87 430.15 601.98 442.11 592.96 448.49C589.91 450.64 584.8 453.08 583.07 456.36C585.87 457.11 593.52 455.38 596.39 454.2C597.56 454.24 598.73 454.27 599.91 454.31C600 454.02 600.1 453.72 600.2 453.43C601.35 453.45 602.5 453.47 603.65 453.5C603.74 453.18 603.84 452.87 603.94 452.56C608.96 450.04 615.05 448.69 619.92 445.49C625.54 441.79 630.7 436.87 635.43 432.01C637.8 429.57 640.05 426.48 642.8 424.45C649.25 419.69 658.42 413.61 666.33 411.84C667.75 411.52 668.93 411.75 670.31 411.24C671.78 411.31 673.25 411.39 674.72 411.47C674.86 411.15 675.01 410.83 675.15 410.51C681.09 410.52 687.02 410.52 692.95 410.53C693.11 410.86 693.27 411.2 693.42 411.53C695.19 411.45 696.96 411.37 698.73 411.29C712.2 414.73 725.67 418.18 739.14 421.62C739.17 421.83 739.21 422.05 739.24 422.27C740.42 422.27 741.6 422.28 742.78 422.28C742.97 422.41 743.16 422.53 743.35 422.65C743.54 422.95 743.73 423.25 743.92 423.55C745.31 423.6 746.69 423.64 748.08 423.68C748.25 423.97 748.42 424.27 748.6 424.57C750.02 424.55 751.45 424.53 752.87 424.51C753 424.82 753.14 425.14 753.27 425.45C755.7 425.36 758.12 425.27 760.55 425.18C764.63 426.92 769.98 424.43 772.76 421.29C772.75 420.26 772.97 419.05 772.51 418.09C771.48 415.92 767.63 414.1 765.63 413.1C759.77 410.17 751.65 407.5 747.59 402.15C740.34 392.59 739.43 378.02 731.26 367.12C721.53 354.14 704.77 339.93 689.39 334.28C685.97 333.03 682.68 331.4 679.23 330.27C676.06 329.23 672.57 328.93 669.66 327.36C669.48 327.06 669.29 326.75 669.11 326.45C668.03 326.41 666.96 326.36 665.88 326.32C665.71 326.02 665.54 325.73 665.37 325.43C664.27 325.43 663.18 325.44 662.08 325.45C661.93 325.13 661.78 324.81 661.63 324.49C660.49 324.55 659.36 324.62 658.22 324.69C654.75 323.59 651.2 323.83 647.63 323.17C644.22 322.55 640.69 321.6 637.26 321.12C634.22 320.69 631.01 321.51 627.96 321.09C617.52 319.66 606.62 319.59 596.16 321.07C592.5 321.59 588.66 320.67 584.99 321.12C581.54 321.54 577.98 322.46 574.63 323.15C572.26 323.64 569.71 322.85 567.35 323.23C565.3 323.55 563.8 324.58 561.56 324.19C558.85 323.71 555.89 323.69 553.18 323.11C541.15 320.58 529.3 310.73 518.32 305.16C511.7 301.79 504.91 299.35 498.12 296.65C498.07 296.35 498.02 296.05 497.97 295.75C496.79 295.78 495.61 295.81 494.43 295.83C488.62 293.29 476.49 293.45 470.63 295.79Z" fill="#d9a541" fill-rule="evenodd" stroke="#d9a541" stroke-width="0.25" stroke-linejoin="round"/>
<path d="M470.63 295.79C469.39 296.06 468.15 296.33 466.91 296.61C466.97 296.29 467.04 295.98 467.11 295.67C468.28 295.71 469.46 295.75 470.63 295.79ZM494.43 295.83C495.61 295.81 496.79 295.78 497.97 295.75C498.02 296.05 498.07 296.35 498.12 296.65C496.89 296.38 495.66 296.11 494.43 295.83ZM658.22 324.69C659.36 324.62 660.49 324.55 661.63 324.49C661.78 324.81 661.93 325.13 662.08 325.45C660.99 325.44 659.91 325.43 658.82 325.42C658.62 325.18 658.42 324.93 658.22 324.69ZM662.08 325.45C663.18 325.44 664.27 325.43 665.37 325.43C665.54 325.73 665.71 326.02 665.88 326.32C664.77 326.34 663.67 326.36 662.56 326.37C662.4 326.06 662.24 325.76 662.08 325.45ZM665.88 326.32C666.96 326.36 668.03 326.41 669.11 326.45C669.29 326.75 669.48 327.06 669.66 327.36C668.54 327.34 667.42 327.31 666.3 327.28C666.16 326.96 666.02 326.64 665.88 326.32ZM584.75 407.3C582.47 407.44 580.19 407.58 577.91 407.73C578.07 407.41 578.23 407.09 578.4 406.77C580.51 406.95 582.63 407.12 584.75 407.3ZM577.91 407.73C577.76 407.99 577.61 408.26 577.46 408.52C573.58 408.59 569.7 408.65 565.81 408.72C565.96 408.4 566.1 408.08 566.24 407.76C570.13 407.75 574.02 407.74 577.91 407.73ZM585.36 407.66C587.4 407.67 589.44 407.68 591.49 407.69C591.66 407.97 591.82 408.24 591.99 408.51C589.95 408.51 587.92 408.52 585.88 408.52C585.7 408.23 585.53 407.95 585.36 407.66ZM565.81 408.72C565.64 409 565.47 409.28 565.3 409.56C563.25 409.55 561.19 409.54 559.14 409.53C559.32 409.24 559.51 408.94 559.69 408.65C561.73 408.67 563.77 408.69 565.81 408.72ZM559.14 409.53C559.01 409.84 558.89 410.14 558.76 410.44C557.26 410.42 555.77 410.39 554.27 410.37C555.89 410.09 557.52 409.81 559.14 409.53ZM692.95 410.53C687.02 410.52 681.09 410.52 675.15 410.51C675.32 410.21 675.49 409.91 675.65 409.61C681.26 409.6 686.87 409.6 692.49 409.59C692.64 409.91 692.8 410.22 692.95 410.53ZM554.27 410.37C554.21 410.6 554.15 410.84 554.08 411.08C552.9 411.1 551.71 411.12 550.53 411.13C551.78 410.88 553.02 410.62 554.27 410.37ZM675.15 410.51C675.01 410.83 674.86 411.15 674.72 411.47C673.25 411.39 671.78 411.31 670.31 411.24C671.92 411 673.54 410.75 675.15 410.51ZM692.95 410.53C694.88 410.78 696.8 411.04 698.73 411.29C696.96 411.37 695.19 411.45 693.42 411.53C693.27 411.2 693.11 410.86 692.95 410.53ZM575.23 413.32C573.91 413.34 572.6 413.37 571.28 413.39C571.47 413.08 571.66 412.76 571.85 412.44C572.79 412.45 573.72 412.47 574.66 412.48C574.85 412.76 575.04 413.04 575.23 413.32ZM589.94 413.39C588.12 413.37 586.3 413.35 584.47 413.33C584.63 413.09 584.79 412.86 584.94 412.62C586.5 412.58 588.06 412.54 589.62 412.5C589.73 412.8 589.83 413.1 589.94 413.39ZM689.8 415.31C687.15 415.28 684.5 415.26 681.85 415.23C681.96 415.06 682.08 414.88 682.2 414.71C684.69 414.71 687.19 414.72 689.68 414.73C689.72 414.92 689.76 415.12 689.8 415.31ZM739.14 421.62C740.35 421.84 741.57 422.06 742.78 422.28C741.6 422.28 740.42 422.27 739.24 422.27C739.21 422.05 739.17 421.83 739.14 421.62ZM743.35 422.65C744.78 422.67 746.22 422.69 747.66 422.71C747.8 423.04 747.94 423.36 748.08 423.68C746.69 423.64 745.31 423.6 743.92 423.55C743.73 423.25 743.54 422.95 743.35 422.65ZM748.08 423.68C749.5 423.66 750.92 423.63 752.34 423.61C752.51 423.91 752.69 424.21 752.87 424.51C751.45 424.53 750.02 424.55 748.6 424.57C748.42 424.27 748.25 423.97 748.08 423.68ZM752.87 424.51C755.43 424.73 757.99 424.96 760.55 425.18C758.12 425.27 755.7 425.36 753.27 425.45C753.14 425.14 753 424.82 752.87 424.51ZM603.94 452.56C603.84 452.87 603.74 453.18 603.65 453.5C602.5 453.47 601.35 453.45 600.2 453.43C600.41 453.15 600.63 452.88 600.84 452.6C601.87 452.59 602.91 452.57 603.94 452.56ZM600.2 453.43C600.1 453.72 600 454.02 599.91 454.31C598.73 454.27 597.56 454.24 596.39 454.2C597.66 453.94 598.93 453.69 600.2 453.43ZM294.05 494.49C295.8 494.55 297.54 494.61 299.29 494.67C299.12 494.93 298.95 495.18 298.78 495.44C297.22 495.36 295.67 495.28 294.11 495.2C294.09 494.96 294.07 494.72 294.05 494.49ZM301.01 494.74C304.21 494.73 307.41 494.71 310.61 494.69C310.41 494.98 310.21 495.26 310.01 495.55C307.2 495.55 304.39 495.55 301.59 495.55C301.4 495.28 301.2 495.01 301.01 494.74ZM326.62 497.81C325.02 498.05 323.42 498.3 321.82 498.54C321.94 498.24 322.05 497.93 322.16 497.63C323.65 497.69 325.14 497.75 326.62 497.81ZM289.93 499.34C288.14 499.35 286.36 499.36 284.57 499.38C284.64 499.06 284.7 498.75 284.76 498.43C286.31 498.43 287.87 498.43 289.43 498.43C289.6 498.74 289.76 499.04 289.93 499.34ZM321.82 498.54C321.62 498.82 321.43 499.11 321.23 499.39C318.87 499.42 316.51 499.44 314.15 499.47C314.33 499.12 314.5 498.78 314.68 498.43C317.06 498.47 319.44 498.5 321.82 498.54ZM289.93 499.34C297.81 499.49 305.69 499.64 313.58 499.79C309.91 500.95 292.72 501.26 289.93 499.34ZM328.08 512.56C325.33 512.5 322.58 512.45 319.82 512.39C319.98 512.09 320.14 511.79 320.29 511.49C322.79 511.52 325.28 511.55 327.77 511.58C327.88 511.9 327.98 512.23 328.08 512.56ZM342.27 512.42C338.51 512.46 334.75 512.5 330.99 512.54C331.16 512.17 331.34 511.81 331.51 511.44C334.94 511.47 338.37 511.49 341.8 511.52C341.96 511.82 342.11 512.12 342.27 512.42Z" fill="#bea87e" fill-rule="evenodd" stroke="#bea87e" stroke-width="0.25" stroke-linejoin="round"/>
</svg>
